<?xml version="1.0" encoding="UTF-8" standalone="no"?>
<!-- Created with Inkscape (http://www.inkscape.org/) -->

<svg
   xmlns:dc="http://purl.org/dc/elements/1.1/"
   xmlns:cc="http://creativecommons.org/ns#"
   xmlns:rdf="http://www.w3.org/1999/02/22-rdf-syntax-ns#"
   xmlns:svg="http://www.w3.org/2000/svg"
   xmlns="http://www.w3.org/2000/svg"
   xmlns:sodipodi="http://sodipodi.sourceforge.net/DTD/sodipodi-0.dtd"
   xmlns:inkscape="http://www.inkscape.org/namespaces/inkscape"
   width="210mm"
   height="297mm"
   viewBox="0 0 210 297"
   version="1.1"
   id="svg8"
   inkscape:version="0.92.4 (5da689c313, 2019-01-14)"
   sodipodi:docname="trox_logo.svg">
  <defs
     id="defs2">
    <inkscape:path-effect
       effect="bspline"
       id="path-effect3715"
       is_visible="true"
       weight="33.333333"
       steps="2"
       helper_size="0"
       apply_no_weight="true"
       apply_with_weight="true"
       only_selected="false" />
    <clipPath
       clipPathUnits="userSpaceOnUse"
       id="clipPath8495">
      <path
         style="fill:#000000;stroke-width:0.05062275"
         d="m 198.36095,241.81313 c -0.18958,0.0779 -0.48846,-0.20714 -0.41958,-0.40018 0.0422,-0.11822 0.19103,-0.10078 0.35153,0.0411 0.15678,0.1386 0.18911,0.30926 0.068,0.35904 z m -18.92996,-16.56169 c -0.033,0.0876 -0.14125,0.0827 -0.222,-0.0104 -0.0552,-0.0634 -0.0532,-0.0914 0.0115,-0.1591 0.13775,-0.14444 0.28425,-0.0268 0.21057,0.16906 z m -7.09488,21.51614 c -0.0927,0.0879 -0.25593,0.12009 -0.2645,0.0521 -0.0166,-0.13177 -0.0578,-0.25881 -0.13832,-0.42672 -0.0651,-0.13559 -0.0765,-0.20761 -0.0391,-0.24673 0.0945,-0.0991 0.24903,-0.001 0.39166,0.24584 0.1663,0.28909 0.16348,0.26814 0.0504,0.37552 z m -1.53827,-35.00111 c -0.0233,0.0153 -0.0865,-0.003 -0.14022,-0.0409 -0.0754,-0.053 -0.0843,-0.0829 -0.0393,-0.13077 0.0321,-0.0341 0.0945,-0.0492 0.13847,-0.0336 0.0855,0.0306 0.11136,0.15948 0.0411,0.20528 z m -9.42169,-4.01304 c -0.28493,0.12412 -0.28289,0.096 -0.24821,3.41093 0.0345,3.30506 0.0483,3.6069 0.16714,3.68607 0.14405,0.0959 0.14054,0.41169 -0.007,0.68123 -0.1147,0.20872 -0.11817,0.25762 -0.13224,1.86039 -0.0133,1.52205 -0.0182,4.5569 -0.0123,7.11478 0.002,0.58481 2e-5,1.47353 -0.003,1.97492 -0.003,0.50139 -5.3e-4,2.16474 0.006,3.69635 0.007,1.5316 0.0113,3.24047 0.0101,3.79752 -0.001,0.55703 0.0136,2.16392 0.0337,3.57084 l 0.0358,2.55804 0.13598,0.13993 c 0.11065,0.11386 0.13027,0.16967 0.10532,0.2996 -0.0168,0.0879 -0.0728,0.22246 -0.12436,0.29918 -0.16403,0.24417 -0.18257,0.77008 -0.17562,4.9812 0.004,2.49198 0.002,3.97622 -0.007,5.13982 -0.004,0.43176 -0.009,1.19524 -0.0124,1.69663 -0.003,0.50138 -0.0158,1.40175 -0.0281,2.00082 -0.0122,0.59906 -0.0102,1.59728 0.004,2.21823 0.0145,0.62095 0.007,1.28194 -0.0162,1.46885 -0.036,0.28828 -0.12841,2.46003 -0.12117,2.84823 8e-4,0.0696 -0.003,0.65432 -0.01,1.29943 -0.0135,1.28989 0.0295,1.6294 0.2577,2.04504 l 0.12808,0.23314 -0.17514,0.22368 c -0.25361,0.32398 -0.62602,0.8654 -1.25111,1.81896 -0.0927,0.14144 -0.2999,0.44257 -0.46035,0.66915 -0.16046,0.22662 -0.44627,0.648 -0.63512,0.93642 -0.28675,0.43796 -0.84318,1.26373 -1.77597,2.63564 -0.0883,0.12976 -0.2973,0.44207 -0.46463,0.69403 -0.16732,0.25199 -0.37699,0.56454 -0.46594,0.69464 -0.25716,0.37611 -0.84384,1.24722 -1.11024,1.64846 -0.13446,0.20254 -0.35084,0.52316 -0.48083,0.7125 -0.18108,0.26376 -0.23069,0.37748 -0.21207,0.48627 0.0399,0.23376 -0.0641,0.25609 -1.11634,0.23951 -1.59947,-0.0251 -1.68255,-0.0267 -2.38591,-0.0426 -0.3762,-0.009 -0.91994,-0.0172 -1.20834,-0.019 l -0.52437,-0.004 -0.16702,0.27522 c -0.0918,0.15139 -0.19057,0.2758 -0.21936,0.27649 -0.0288,0 -0.16267,-0.10681 -0.29752,-0.23887 l -0.24518,-0.24008 -1.01065,-0.007 c -0.99202,-0.007 -2.24691,-0.0481 -2.92467,-0.0951 -0.41171,-0.0284 -0.54707,-0.14623 -0.55594,-0.48352 -0.008,-0.32211 -0.29302,-1.05611 -0.53633,-1.38343 -0.0518,-0.0696 -0.2071,-0.36319 -0.34518,-0.65238 -0.13809,-0.28914 -0.36644,-0.75086 -0.50747,-1.02603 -0.5488,-1.07085 -0.8906,-1.76236 -0.92916,-1.87986 -0.0221,-0.0675 -0.17752,-0.38148 -0.34529,-0.69779 -0.16777,-0.31631 -0.32409,-0.6658 -0.3474,-0.77666 -0.0607,-0.28911 -0.11082,-3.20879 -0.0581,-3.39129 0.0768,-0.26565 0.0761,-3.40509 -0.001,-4.45602 -0.0586,-0.79986 -0.0922,-1.01936 -0.20054,-1.31279 -0.30081,-0.8143 -0.5843,-1.20408 -1.50173,-2.06493 -0.8314,-0.78008 -0.9419,-0.94086 -1.13075,-1.64486 -0.082,-0.30562 -0.0934,-0.48507 -0.0781,-1.22865 0.01,-0.47892 0.0224,-0.96201 0.0277,-1.07353 0.005,-0.11153 0.0149,-0.59029 0.0214,-1.0639 0.007,-0.4736 0.0273,-1.12351 0.0463,-1.44425 0.019,-0.32071 0.0362,-0.99334 0.0383,-1.49469 0.002,-0.50136 0.013,-1.47003 0.0239,-2.15263 0.0114,-0.68259 0.0216,-1.65315 0.0234,-2.15679 0.004,-0.98958 0.0383,-1.26182 0.20915,-1.63511 0.24523,-0.53598 0.46358,-0.80525 1.09137,-1.3458 0.4957,-0.4268 0.79402,-0.73773 0.87778,-0.91487 0.24768,-0.52384 0.49508,-1.21997 0.58073,-1.63411 0.10598,-0.51257 0.046,-3.45932 -0.10087,-4.94872 -0.12687,-1.2867 -0.18371,-1.44935 -0.61416,-1.75552 -0.32889,-0.23394 -0.63021,-0.29241 -1.29747,-0.2518 -0.66066,0.0403 -0.9783,0.18492 -1.26628,0.57683 -0.33867,0.46093 -0.32761,0.33501 -0.28602,3.2563 0.0341,2.39594 0.0293,2.68452 -0.0502,3.01703 -0.11538,0.48261 -0.43924,1.02047 -0.89019,1.47839 -0.61708,0.62661 -1.27399,1.83295 -1.50236,2.75886 -0.0467,0.18998 -0.0966,0.36485 -0.11049,0.38861 -0.0139,0.0238 -0.064,0.3213 -0.11118,0.66123 -0.0822,0.59152 -0.0809,0.74004 0.0289,3.46173 0.0632,1.56404 0.141,3.92188 0.17287,5.23962 0.0532,2.21056 0.0666,2.43552 0.17371,2.90752 0.28428,1.256 0.84963,2.27421 1.76617,3.18086 0.57163,0.56546 0.81636,0.93517 0.97411,1.47153 0.10411,0.35408 0.1208,0.52891 0.13916,1.45975 0.0248,1.26015 -0.0186,1.66454 -0.22718,2.1122 -0.20443,0.43888 -1.23758,2.52155 -1.28361,2.58754 -0.0198,0.0283 -0.20011,0.38578 -0.40077,0.79435 -0.20067,0.40857 -0.43499,0.88123 -0.52074,1.05037 -0.49672,0.97991 -2.22244,4.59976 -2.5892,5.43108 -0.43179,0.97872 -0.5479,1.27513 -0.59342,1.51487 -0.0708,0.37349 -0.14403,0.40516 -0.84657,0.36695 -0.32004,-0.0175 -0.96937,-0.0354 -1.44294,-0.0402 -0.47356,-0.005 -1.15748,-0.0185 -1.51982,-0.0303 -0.36233,-0.0119 -0.69194,-0.0212 -0.73243,-0.0204 -0.0405,0 -0.0851,0.0583 -0.0993,0.12833 -0.0175,0.0864 -0.0973,0.1647 -0.24969,0.24434 -0.12323,0.0645 -0.25331,0.1188 -0.28902,0.12078 -0.0358,0.003 -0.11811,-0.10901 -0.18308,-0.2467 l -0.11809,-0.25032 h -0.3038 c -4.60359,0.0233 -4.98972,0.0161 -5.13432,-0.0929 -0.0498,-0.0374 -0.0624,-0.12012 -0.0442,-0.28803 0.0279,-0.2559 0.0162,-0.28432 -0.64066,-1.57729 -0.16777,-0.33025 -0.35892,-0.71307 -0.42477,-0.85079 -0.0658,-0.13769 -0.25187,-0.50924 -0.41339,-0.82574 -0.82973,-1.62552 -1.52844,-3.11271 -1.6081,-3.42289 -0.0721,-0.28101 -0.0894,-0.56583 -0.0935,-1.5422 -0.008,-1.96167 0.008,-5.13883 0.0319,-6.03423 0.0326,-1.26095 -0.0687,-1.75811 -0.52431,-2.57007 -0.298,-0.5311 -0.5598,-0.83938 -1.18277,-1.39281 -0.57989,-0.51516 -0.8129,-0.82484 -1.03696,-1.37812 -0.19785,-0.48859 -0.2068,-1.02137 -0.10542,-6.26339 0.013,-0.66872 0.0192,-1.39803 0.014,-1.62071 -0.006,-0.22268 -0.0185,-0.74647 -0.0296,-1.16397 -0.0303,-1.15869 0.025,-2.94891 0.10252,-3.29381 0.0377,-0.168 0.10315,-0.38602 0.14535,-0.48449 0.10386,-0.24236 0.41543,-0.72095 0.55243,-0.84858 0.0614,-0.0571 0.16379,-0.19061 0.22765,-0.29656 0.0638,-0.10593 0.15167,-0.19346 0.19513,-0.1945 0.11306,-0.003 0.63645,-0.54121 0.85795,-0.88281 0.22614,-0.34872 0.35964,-0.62026 0.48293,-0.98216 0.25611,-0.75181 0.28058,-1.1699 0.1492,-2.55037 -0.0397,-0.41682 -0.0928,-1.15613 -0.1183,-1.64291 -0.0254,-0.48677 -0.0707,-0.97563 -0.10063,-1.08631 -0.0299,-0.11069 -0.0588,-0.3647 -0.0643,-0.56448 -0.0159,-0.58832 -0.12138,-1.13068 -0.25892,-1.33087 -0.21814,-0.31755 -0.81677,-0.53281 -1.44192,-0.5185 -0.7872,0.018 -1.18255,0.23718 -1.49822,0.83052 l -0.18536,0.34838 0.0466,2.40184 c 0.0455,2.34519 0.0233,3.09866 -0.10273,3.49492 -0.12884,0.4048 -0.44324,0.9036 -0.85686,1.35948 -0.71586,0.78896 -1.08193,1.44884 -1.41781,2.55557 -0.37421,1.23311 -0.36754,1.00493 -0.20732,7.08538 0.12648,4.79851 0.15241,5.43519 0.23669,5.80966 0.25886,1.14975 0.82339,2.13557 1.74833,3.05298 0.66102,0.65567 0.81046,0.89278 0.98688,1.56599 0.10655,0.40658 0.12427,0.60643 0.15087,1.70062 0.0384,1.57947 0.0448,1.55267 -0.76246,3.12758 -0.17212,0.33576 -0.47737,0.94684 -0.67833,1.35795 -0.20096,0.41111 -0.44933,0.90898 -0.55194,1.10635 -0.33076,0.63622 -0.69411,1.3688 -0.99116,1.9983 -0.15948,0.33795 -0.49724,1.02957 -0.75056,1.53686 -0.25331,0.50728 -0.51612,1.04902 -0.58399,1.2038 -0.21281,0.48524 -0.80005,1.70944 -0.88447,1.84382 -0.0445,0.0707 -0.1223,0.23204 -0.17312,0.35857 -0.0509,0.12652 -0.15468,0.32837 -0.23078,0.44855 l -0.13835,0.21846 -0.67179,0.0159 c -0.59749,0.0143 -0.68122,0.0268 -0.75716,0.11483 -0.0927,0.10742 -0.12037,0.10816 -0.9654,0.0269 -0.25122,-0.0243 -0.86718,-0.0544 -1.36877,-0.0668 -0.5016,-0.0124 -1.05253,-0.0354 -1.22431,-0.0511 -0.42831,-0.039 -0.55044,0.005 -0.6811,0.24482 -0.10783,0.19804 -0.25795,0.29652 -0.31607,0.20727 -0.0162,-0.0249 -0.0736,-0.0442 -0.12765,-0.0429 -0.0994,0.003 -0.11718,-0.0365 -0.10658,-0.23159 0.004,-0.0592 -0.0321,-0.14383 -0.0786,-0.18804 -0.0869,-0.083 -0.61937,-0.086 -3.602147,-0.0209 l -0.918271,0.0196 -0.0581,-0.30572 c -0.03201,-0.16815 -0.142002,-0.47316 -0.244528,-0.67781 -0.507513,-1.01301 -0.711848,-1.42404 -0.993627,-1.99869 -0.168743,-0.34415 -0.461891,-0.92967 -0.651431,-1.30114 -0.382563,-0.74981 -0.438769,-0.86445 -0.846814,-1.72694 l -0.284295,-0.60092 -0.02593,-1.26532 c -0.01402,-0.6959 -0.0095,-1.73281 0.0104,-2.3042 0.01987,-0.57142 0.04355,-1.60317 0.05268,-2.2928 0.009,-0.68963 0.02614,-1.2711 0.03799,-1.29214 0.04966,-0.0885 -0.109601,-2.08174 -0.191924,-2.40236 -0.199101,-0.77543 -0.669062,-1.47599 -1.512432,-2.25451 -0.698151,-0.64447 -0.852358,-0.85853 -1.070422,-1.48588 -0.137504,-0.39558 -0.141653,-0.4358 -0.128572,-1.24462 0.0074,-0.4597 0.02708,-1.15516 0.04367,-1.54546 0.04953,-1.16183 0.161814,-5.39906 0.213125,-8.03933 0.01175,-0.60363 0.0452,-1.20827 0.07442,-1.34363 0.02923,-0.13536 0.14273,-0.42818 0.25227,-0.65069 0.17376,-0.35304 0.295616,-0.50111 0.956183,-1.16196 0.639725,-0.64002 0.793578,-0.82492 0.992928,-1.19337 0.250076,-0.46218 0.397582,-0.85479 0.508667,-1.35392 0.05647,-0.25383 0.05576,-0.61684 -0.0046,-2.14886 -0.03991,-1.01389 -0.09548,-1.91265 -0.123671,-1.99724 -0.02811,-0.0846 -0.08581,-0.52895 -0.12821,-0.98748 -0.0424,-0.45853 -0.101734,-0.9206 -0.131709,-1.02686 -0.06998,-0.24719 -0.387308,-0.57562 -0.703162,-0.72767 -0.223642,-0.10765 -0.305914,-0.11725 -0.879303,-0.10277 -0.563213,0.0142 -0.657254,0.0295 -0.857517,0.13969 -0.418045,0.22988 -0.682308,0.5717 -0.762524,0.98632 -0.019,0.0978 -0.01765,1.07772 0.003,2.17732 0.02103,1.09958 0.01982,2.33463 -0.0024,2.7445 l -0.03993,0.74526 -0.243583,0.46421 c -0.133964,0.25531 -0.242983,0.48911 -0.242263,0.51957 7.93e-4,0.0304 -0.223629,0.30343 -0.498552,0.60665 -0.630489,0.69538 -0.81375,0.95288 -1.086916,1.52729 -0.327208,0.68806 -0.553585,1.34613 -0.654077,1.90143 -0.100428,0.55497 -0.113239,1.15222 -0.07851,3.66065 0.01241,0.90484 0.03903,3.05756 0.05877,4.7838 0.02598,2.26151 0.05422,3.23019 0.100925,3.46623 0.07689,0.38783 0.303527,1.09551 0.44649,1.39406 0.05587,0.11675 0.101893,0.22267 0.102195,0.2354 2.64e-4,0.0127 0.08762,0.16473 0.193924,0.33776 0.3137,0.51042 0.74119,1.03839 1.118528,1.38143 0.413208,0.37565 0.684208,0.80652 0.845638,1.34452 0.100004,0.33317 0.116461,0.51321 0.134472,1.46795 0.02952,1.58527 -0.01095,1.78537 -0.594577,2.92571 -0.690679,1.34924 -0.846315,1.65732 -1.164966,2.30621 -0.705313,1.43627 -1.109848,2.24116 -1.158986,2.30608 -0.02143,0.0283 -0.30448,0.60471 -0.628931,1.2808 -1.891342,3.94126 -1.994416,4.14814 -2.156618,4.32834 l -0.124982,0.13886 -0.793117,0.009 c -1.363359,0.0138 -3.313444,0.045 -3.563663,0.0564 -0.224057,0.0106 -0.244104,0.0227 -0.309356,0.18984 -0.03839,0.0983 -0.12891,0.2074 -0.201181,0.24243 -0.119414,0.0579 -0.14242,0.0503 -0.251804,-0.0826 -0.06622,-0.0804 -0.164478,-0.19799 -0.218369,-0.26125 l -0.09795,-0.11501 -1.947473,0.0579 c -2.362103,0.0701 -3.291436,0.0869 -3.319669,0.06 -0.01177,-0.0111 -0.06652,-0.17729 -0.121767,-0.36917 -0.109768,-0.38116 -0.213384,-0.60169 -0.914842,-1.94741 -0.671166,-1.28762 -1.397481,-2.7395 -1.888998,-3.776 -0.197202,-0.41587 -0.200911,-0.434 -0.211555,-1.03307 -0.01426,-0.81476 0.05004,-4.83592 0.09636,-6.00513 0.01053,-0.26483 0.02513,-0.64116 0.03254,-0.83628 0.05177,-1.36258 -0.03061,-1.83477 -0.466359,-2.67271 -0.335381,-0.64489 -0.701755,-1.08676 -1.277173,-1.54032 -0.651614,-0.51363 -0.888707,-0.88976 -1.107895,-1.75762 -0.06688,-0.26461 -0.06661,-0.37616 0.0041,-1.83601 0.01955,-0.40429 0.04508,-1.28218 0.05684,-1.95087 0.0117,-0.66868 0.04004,-1.39854 0.06307,-1.62188 0.03806,-0.36957 0.123217,-2.82133 0.180457,-5.19454 0.02656,-1.1013 0.05757,-1.29097 0.292965,-1.78907 0.151352,-0.32034 0.292632,-0.49333 0.982819,-1.20338 0.850246,-0.87474 1.09048,-1.20639 1.341572,-1.8522 0.311817,-0.80197 0.37193,-1.36481 0.338508,-3.16931 -0.0222,-1.19196 -0.0405,-1.45803 -0.107738,-1.58999 -0.05234,-0.10218 -0.114464,-0.49055 -0.174813,-1.09307 -0.113554,-1.13389 -0.187854,-1.33469 -0.599321,-1.62018 -0.409607,-0.28421 -0.777865,-0.36885 -1.340557,-0.30815 -0.78759,0.0849 -1.030927,0.21855 -1.377627,0.75626 l -0.205449,0.31865 0.01746,2.37406 c 0.02085,2.83833 -0.0028,3.33184 -0.180176,3.75685 -0.202515,0.48535 -0.427421,0.80358 -0.850744,1.20375 -0.858983,0.81201 -1.366287,1.7387 -1.756132,3.20789 -0.172884,0.6516 -0.199636,1.57603 -0.154117,5.32534 0.01823,1.5035 0.03641,3.39435 0.0403,4.20191 0.01093,2.25207 0.0241,2.4445 0.210701,3.08547 0.335939,1.15389 0.986435,2.19315 1.854713,2.96317 0.216572,0.19207 0.325924,0.33709 0.407546,0.54044 0.06133,0.15285 0.154858,0.3359 0.207801,0.40678 0.178432,0.2389 0.217326,0.50419 0.245266,1.6728 0.02352,0.99356 0.01474,1.19745 -0.0694,1.57138 -0.08743,0.3885 -0.368467,1.05795 -0.642816,1.53131 -0.114567,0.19765 -0.89344,1.77091 -1.078063,2.17758 -0.06389,0.14075 -0.187685,0.38293 -0.275066,0.53818 -0.08735,0.15524 -0.207571,0.40876 -0.267103,0.56333 -0.05956,0.15459 -0.178683,0.36248 -0.264805,0.46199 -0.23912,0.27633 -0.421545,0.63629 -2.399615,4.73517 -0.515133,1.06746 -0.982596,1.97252 -1.038783,2.01128 -0.124436,0.0858 -3.336536,0.2604 -4.01791,0.21839 -0.445923,-0.0275 -0.556905,0.004 -0.553254,0.15861 0.0021,0.093 -0.249754,0.31306 -0.361434,0.31571 -0.08927,0.003 -0.272375,-0.18902 -0.320194,-0.33423 -0.02048,-0.0623 -0.07564,-0.1148 -0.12252,-0.11694 -0.283935,-0.013 -2.395437,0.0724 -2.816892,0.11398 -0.27786,0.0273 -0.744691,0.04 -1.037386,0.0285 -0.292711,-0.0119 -0.756955,-0.0188 -1.031658,-0.0151 -0.493956,0.007 -0.49911,0.005 -0.46595,-0.10829 0.01841,-0.063 0.04179,-0.25448 0.05196,-0.42526 0.01675,-0.28186 -0.0024,-0.35635 -0.206735,-0.80532 -0.417454,-0.91715 -0.940649,-1.92921 -2.013926,-3.89572 -0.210082,-0.38494 -0.49162,-0.95933 -0.625637,-1.27643 l -0.243657,-0.57658 0.01823,-0.73464 c 0.01,-0.40407 0.02125,-1.41835 0.0249,-2.25396 0.0037,-0.83558 0.02162,-2.10067 0.03992,-2.81128 0.01831,-0.71063 0.02461,-1.72477 0.01413,-2.25368 l -0.01876,-0.96167 -0.178586,-0.47532 c -0.09822,-0.26146 -0.2281,-0.55461 -0.28861,-0.65146 -0.364699,-0.58375 -0.630401,-0.89562 -1.13111,-1.32761 -0.655611,-0.56565 -0.691327,-0.60429 -0.882866,-0.95552 -0.361231,-0.66235 -0.410271,-1.1709 -0.311852,-3.23339 0.06158,-1.29073 0.130982,-3.20806 0.171479,-4.7386 0.132469,-5.00584 0.115285,-4.82153 0.512324,-5.49586 0.16819,-0.28563 0.357367,-0.49894 0.796509,-0.89806 0.711356,-0.64654 0.97825,-0.99754 1.307248,-1.71924 0.40775,-0.89442 0.421183,-0.98706 0.4025,-2.77434 -0.01434,-1.36484 -0.03098,-1.64753 -0.143655,-2.37651 -0.07009,-0.45509 -0.155969,-1.0774 -0.190815,-1.38294 -0.09758,-0.85611 -0.266962,-1.11551 -0.917824,-1.40593 -0.385961,-0.17223 -0.390279,-0.17286 -0.891862,-0.13037 -0.428472,0.0363 -0.552802,0.0682 -0.829482,0.2126 -0.196223,0.10246 -0.407559,0.26577 -0.532173,0.4113 -0.357425,0.41742 -0.367908,0.49602 -0.349115,2.61608 0.02648,2.98158 0.0093,3.53926 -0.119827,3.91086 -0.158298,0.45544 -0.538199,1.02016 -0.935217,1.39017 -0.840301,0.78318 -1.490679,2.05284 -1.754079,3.42435 -0.08844,0.46038 -0.09662,0.74188 -0.08634,2.96432 0.0093,1.99219 0.05833,6.07127 0.100581,8.34716 0.0069,0.37951 0.08367,0.79657 0.227833,1.24075 0.02687,0.0829 0.06451,0.21949 0.0836,0.30353 0.0191,0.0841 0.08845,0.21238 0.154101,0.28525 0.120084,0.13325 0.214585,0.32026 0.373769,0.73965 0.124537,0.32811 0.806606,1.19519 0.937741,1.19208 0.113358,-0.003 0.625055,0.55765 0.811485,0.88862 0.131824,0.23401 0.199856,0.88782 0.221131,2.12516 0.02008,1.18666 0.01625,1.25551 -0.09759,1.59739 -0.235781,0.70831 -0.262297,0.76498 -0.612605,1.3087 -0.0466,0.0723 -0.181976,0.33761 -0.300792,0.58944 -0.118827,0.25183 -0.323368,0.6541 -0.454551,0.89392 -0.131184,0.23984 -0.320657,0.60891 -0.421058,0.82015 -0.100397,0.21125 -0.256911,0.51121 -0.347811,0.66652 -0.09095,0.15533 -0.224137,0.44333 -0.296066,0.63997 -0.07197,0.19666 -0.167172,0.4154 -0.211662,0.48607 -0.201628,0.32033 -0.652565,1.17639 -1.039913,1.97411 -0.232558,0.47894 -0.604046,1.23383 -0.825513,1.67748 -0.221477,0.44365 -0.416052,0.86982 -0.43239,0.94702 -0.01638,0.0771 -0.06979,0.18688 -0.118758,0.24374 -0.04896,0.0569 -0.180091,0.28784 -0.291351,0.51326 -0.111268,0.22545 -0.261467,0.52745 -0.333788,0.67112 -0.07232,0.14367 -0.143507,0.3121 -0.15821,0.3743 l -0.02674,0.11309 -1.054608,-0.003 c -0.580027,0 -1.51071,-0.0175 -2.068163,-0.0366 -0.557453,-0.019 -1.104712,-0.0352 -1.216136,-0.0361 l -0.2026,-0.003 -0.009,0.26607 c -0.0054,0.152 -0.03311,0.26662 -0.06519,0.26739 -0.100865,0.003 -0.55194,-0.29869 -0.656154,-0.43797 l -0.101745,-0.13594 -1.230318,-0.007 c -0.676669,-0.004 -1.298088,-0.0145 -1.380935,-0.0225 -0.08281,-0.008 -0.664358,-0.0277 -1.292267,-0.0434 -1.366599,-0.0342 -1.446548,-0.0441 -1.677556,-0.20709 -0.221023,-0.15592 -0.314143,-0.26559 -0.65886,-0.77591 -0.148596,-0.21998 -0.323247,-0.47848 -0.388104,-0.57442 -0.123145,-0.18216 -0.243896,-0.3761 -1.180748,-1.89629 -0.312958,-0.50779 -0.68008,-1.09157 -0.815812,-1.29725 -0.135743,-0.20566 -0.639356,-1.02545 -1.119157,-1.82176 -0.479798,-0.79629 -1.173935,-1.94202 -1.542534,-2.54598 -0.3686,-0.60399 -0.79228,-1.31173 -0.941506,-1.57279 l -0.271334,-0.47461 -0.0052,-0.5569 c -0.0033,-0.30628 0.0062,-1.13822 0.02038,-1.84873 0.05059,-2.53967 0.06637,-3.58747 0.07044,-4.68559 0.0023,-0.61275 0.01829,-1.46763 0.03557,-1.89972 0.01729,-0.4321 0.01481,-1.93594 -0.0055,-3.34191 -0.02026,-1.40596 -0.0164,-3.08085 0.0087,-3.72201 0.02504,-0.64115 0.04781,-1.6443 0.05053,-2.22922 0.0028,-0.58492 0.0089,-1.80415 0.01385,-2.70941 0.0049,-0.90525 0.0045,-1.84294 -9.26e-4,-2.08374 l -0.0098,-0.43783 -0.17795,-0.0994 c -0.109549,-0.0612 -0.192267,-0.15359 -0.215218,-0.24043 -0.02053,-0.0776 -0.05949,-0.168 -0.08668,-0.20095 -0.07621,-0.0924 -0.01356,-0.15011 0.206657,-0.19069 0.115161,-0.0212 0.219943,-0.0753 0.24504,-0.12638 0.02415,-0.0491 0.04189,-0.79566 0.03947,-1.65894 -0.0024,-0.86331 7.41e-4,-1.85461 0.0068,-2.20287 0.01191,-0.67197 0.03652,-4.60217 0.04687,-7.47006 0.01105,-3.05553 0.01713,-3.74373 0.03518,-3.95051 0.0097,-0.11163 0.01192,-0.95479 0.005,-1.87368 -0.0071,-0.91891 -0.0054,-1.81901 0.0037,-2.00025 0.02895,-0.5817 0.05372,-4.14828 0.03444,-4.96324 -0.01078,-0.45503 -0.02427,-0.53122 -0.09426,-0.53022 -0.29913,0.004 -0.31946,-0.35937 -0.03833,-0.68572 0.164052,-0.19046 0.174507,-0.22457 0.166954,-0.54465 -0.0045,-0.1878 4.49e-4,-0.92272 0.01088,-1.63315 0.01043,-0.71043 0.0213,-2.16903 0.02421,-3.24134 0.0075,-2.78484 0.01282,-3.79042 0.02351,-4.48192 0.02844,-1.84611 0.03457,-4.40315 0.01396,-5.84889 -0.01242,-0.90485 -0.02138,-2.13511 -0.01897,-2.73394 0.0024,-0.59886 0.0043,-1.46479 0.0043,-1.92431 -2.11e-4,-0.45953 0.0181,-1.0866 0.04045,-1.39347 0.02245,-0.30689 0.05383,-1.01402 0.0698,-1.57141 0.01602,-0.55737 0.04581,-1.08216 0.06634,-1.1662 l 0.0372,-0.15281 0.477063,-0.009 c 0.262368,-0.006 1.046791,-0.006 1.743138,-0.002 0.696332,0.003 1.315194,0.005 1.375228,0.003 0.08066,-0.003 0.18503,0.10397 0.39973,0.40756 0.159821,0.22599 0.472762,0.60249 0.695436,0.83668 0.598201,0.62915 1.050628,1.16023 1.146672,1.34608 0.04665,0.0903 0.168913,0.2577 0.271603,0.37191 0.10273,0.11419 0.303966,0.34804 0.447286,0.51964 0.143309,0.1716 0.378074,0.4281 0.521689,0.57 0.143616,0.1419 0.340776,0.36575 0.438111,0.49746 0.09734,0.1317 0.332343,0.40668 0.522219,0.61107 0.189878,0.20437 0.425,0.48365 0.522496,0.6206 0.202515,0.28444 0.645747,0.8145 0.99173,1.18598 0.129826,0.13939 0.399259,0.45178 0.598749,0.6942 0.199501,0.24241 0.53053,0.62194 0.735627,0.84342 0.205097,0.22146 0.552248,0.61489 0.771464,0.87428 0.21922,0.25939 0.457774,0.50115 0.530129,0.53725 0.176401,0.0879 0.437664,0.0334 0.677657,-0.14137 0.236717,-0.17248 1.108707,-1.16389 1.609307,-1.82974 0.202525,-0.26936 0.503531,-0.64261 0.668909,-0.82944 0.285617,-0.32266 0.776866,-0.89239 1.193969,-1.38468 0.104873,-0.12377 0.426357,-0.48456 0.714415,-0.80177 1.173784,-1.29254 1.958456,-2.21111 2.034484,-2.38163 0.04426,-0.0993 0.325472,-0.46589 0.624874,-0.81461 0.299398,-0.34872 0.594466,-0.71499 0.655704,-0.8139 0.198961,-0.32139 0.63731,-0.71345 0.847564,-0.75807 0.243226,-0.0517 2.197949,0.007 2.949098,0.0889 0.217543,0.0236 0.264753,0.0108 0.400056,-0.1086 0.08436,-0.0745 0.184287,-0.13629 0.222014,-0.13735 0.03769,-8e-4 0.130077,-0.0358 0.205206,-0.0774 0.151886,-0.0839 0.178321,-0.0652 0.271264,0.19268 l 0.05416,0.1503 0.608716,0.0455 c 0.923229,0.069 1.174057,0.14286 1.445223,0.42568 0.123973,0.1293 0.281305,0.31353 0.349623,0.40939 0.06828,0.0959 0.295119,0.38042 0.504018,0.63238 0.870982,1.05047 1.015794,1.23823 1.072857,1.39106 0.05489,0.14713 0.158234,0.28456 0.773165,1.0286 0.115787,0.1401 0.323461,0.40587 0.461489,0.59059 0.138028,0.18472 0.27224,0.33537 0.298244,0.33475 0.02601,-5.3e-4 0.111696,0.0942 0.190426,0.21077 0.241826,0.35794 0.575545,0.75509 0.690832,0.82214 0.06036,0.0352 0.167613,0.18288 0.238487,0.32849 0.07087,0.1456 0.177261,0.30649 0.236403,0.35753 0.05913,0.051 0.212058,0.23502 0.339807,0.40885 0.127736,0.17383 0.315915,0.39768 0.418161,0.49743 0.102288,0.0997 0.465828,0.53931 0.807942,0.97682 1.366385,1.74734 1.359038,1.73994 1.678966,1.69044 0.238557,-0.0368 0.438897,-0.24682 0.938443,-0.98333 0.360868,-0.53202 0.679813,-0.9532 0.92492,-1.22134 0.09107,-0.0998 0.395489,-0.44864 0.676495,-0.77556 0.280995,-0.32693 0.526158,-0.60616 0.544782,-0.62053 0.01868,-0.0143 0.119285,-0.13314 0.223689,-0.26396 0.104405,-0.1308 0.467323,-0.57233 0.806498,-0.98118 0.339164,-0.40884 0.693293,-0.84771 0.78695,-0.97525 0.278043,-0.37864 0.432641,-0.56825 0.863055,-1.05847 0.744112,-0.84752 1.523246,-1.78733 1.597671,-1.92718 0.163192,-0.30662 0.513768,-0.74057 0.659116,-0.81587 0.08498,-0.044 0.244454,-0.13204 0.354352,-0.19555 0.193804,-0.11202 0.248782,-0.11665 1.827699,-0.154 1.582748,-0.0374 1.631093,-0.0417 1.743488,-0.14765 0.0636,-0.0601 0.156374,-0.12465 0.206219,-0.14363 0.130312,-0.0496 0.406564,0.0727 0.513064,0.22712 0.0895,0.12982 0.09934,0.13165 0.506296,0.0945 0.228261,-0.0209 0.524235,-0.0522 0.657725,-0.0693 0.224425,-0.029 0.255193,-0.019 0.408257,0.13373 0.401413,0.40041 1.792169,2.06891 1.984243,2.3805 0.07937,0.12883 0.265694,0.36529 0.413996,0.5255 0.148291,0.16021 0.363598,0.41072 0.478451,0.55669 0.114859,0.14598 0.37642,0.43438 0.581256,0.64092 0.37135,0.37445 1.018381,1.07788 1.264573,1.37483 0.432438,0.52157 0.99147,1.16861 1.194745,1.3828 0.253304,0.26692 0.473731,0.51827 0.87077,0.99292 0.137834,0.16476 0.355536,0.40069 0.483785,0.52427 0.128249,0.12358 0.395494,0.42414 0.593873,0.66786 0.453282,0.55689 0.588103,0.67116 0.74182,0.62871 0.0793,-0.0219 0.139095,-0.004 0.184796,0.0556 0.154945,0.2017 0.419918,-0.003 1.056677,-0.81587 0.212365,-0.27114 0.597159,-0.75833 0.855099,-1.08266 0.574289,-0.72212 0.923819,-1.20657 0.976191,-1.35303 0.02167,-0.0607 0.127336,-0.21506 0.234701,-0.34293 0.107365,-0.12785 0.232288,-0.30893 0.277612,-0.40236 0.07097,-0.14629 0.101737,-0.16611 0.221765,-0.1427 0.123857,0.0241 0.17498,-0.0148 0.459357,-0.34932 0.176001,-0.20705 0.503642,-0.60868 0.728091,-0.89249 0.224459,-0.28382 0.544271,-0.68827 0.71071,-0.89877 0.166426,-0.2105 0.448855,-0.56229 0.627605,-0.78173 0.220459,-0.27068 0.341469,-0.47035 0.376179,-0.62076 0.05598,-0.24274 0.327298,-0.70622 0.446599,-0.76301 0.397713,-0.18931 0.49939,-0.27352 0.786455,-0.65134 0.358196,-0.47144 0.548632,-0.62399 0.717346,-0.5746 0.06255,0.0183 0.763426,0.0469 1.557557,0.0636 l 1.443866,0.0304 0.09857,-0.11517 c 0.05425,-0.0633 0.120425,-0.15395 0.147153,-0.20133 0.02666,-0.0474 0.131723,-0.10135 0.233312,-0.12 0.173315,-0.0317 0.19304,-0.0214 0.319556,0.16895 0.150667,0.22662 0.12214,0.21873 1.032814,0.28553 0.311301,0.0229 0.636178,0.0642 0.721929,0.0917 0.230471,0.0742 1.252104,1.27707 2.001187,2.35608 0.131842,0.1899 0.329025,0.44394 0.438208,0.56453 0.109191,0.12059 0.316285,0.38132 0.460216,0.5794 0.143941,0.19807 0.462574,0.61384 0.708054,0.92393 0.245502,0.3101 0.674619,0.86896 0.953604,1.24193 0.278995,0.37296 0.542056,0.70564 0.584566,0.73926 0.0425,0.0336 0.0781,0.0917 0.0789,0.12933 8e-4,0.0375 0.14933,0.24198 0.32986,0.45439 0.18053,0.2124 0.48698,0.61031 0.68104,0.88422 0.64711,0.91348 1.36935,1.81584 1.4518,1.81388 0.0241,-5.3e-4 0.0872,-0.0295 0.14007,-0.0643 0.0786,-0.0517 0.11416,-0.0479 0.1937,0.0207 0.10814,0.0932 0.23011,0.1043 0.35744,0.0322 0.10421,-0.0589 0.73245,-0.82644 0.86798,-1.06032 0.21582,-0.37244 0.56593,-0.8875 0.73689,-1.08404 0.0989,-0.11373 0.2299,-0.28773 0.29104,-0.38665 0.0612,-0.0988 0.19859,-0.27308 0.30544,-0.38701 0.10686,-0.11393 0.32867,-0.38123 0.49294,-0.59398 0.16427,-0.21277 0.48592,-0.59637 0.71478,-0.85244 0.22887,-0.25606 0.56864,-0.66287 0.75501,-0.904 0.18639,-0.24113 0.43113,-0.54315 0.54385,-0.67115 0.11272,-0.128 0.39083,-0.45545 0.61803,-0.72764 0.22719,-0.27222 0.64583,-0.76869 0.93035,-1.10329 0.28453,-0.33459 0.6101,-0.73922 0.72352,-0.89917 0.25447,-0.35881 0.27507,-0.38151 0.58191,-0.64126 0.41525,-0.35151 0.42003,-0.35248 2.08119,-0.42146 0.82643,-0.0344 1.55507,-0.0744 1.61923,-0.0891 0.0745,-0.017 0.14205,-0.0918 0.1868,-0.20646 0.0677,-0.17335 0.0786,-0.17944 0.30749,-0.17004 0.21933,0.009 0.24114,0.0221 0.28811,0.17311 0.0477,0.15316 0.065,0.16302 0.27823,0.15799 0.12509,-0.003 0.48337,-0.0381 0.79619,-0.0783 l 0.56875,-0.0729 0.22529,0.2187 c 0.12391,0.12028 0.29553,0.30819 0.38132,0.41756 0.13389,0.17064 0.61984,0.74227 1.16049,1.36507 0.0829,0.0956 0.27651,0.33019 0.43026,0.5215 0.15372,0.19131 0.44913,0.52613 0.65648,0.74402 0.20736,0.21789 0.43706,0.48115 0.51047,0.58501 0.0733,0.10385 0.19342,0.24913 0.26672,0.32283 0.0732,0.0737 0.21915,0.25546 0.32411,0.40392 0.10495,0.14844 0.3112,0.39422 0.45834,0.54614 0.14714,0.15195 0.39375,0.42406 0.54804,0.60471 0.15427,0.18064 0.45397,0.52403 0.66597,0.76309 0.21201,0.23906 0.4579,0.51964 0.54643,0.62349 0.0884,0.10387 0.30956,0.36339 0.49117,0.57673 0.18162,0.21333 0.47738,0.54389 0.65726,0.73459 0.17986,0.19069 0.49699,0.54245 0.7047,0.7817 0.20772,0.23922 0.42594,0.4442 0.48493,0.45548 0.46142,0.0883 0.35329,0.18594 2.22029,-2.0054 1.36746,-1.60502 2.08605,-2.45519 2.52813,-2.9911 0.24366,-0.29537 0.62026,-0.75078 0.83688,-1.01203 0.21662,-0.26124 0.53769,-0.65545 0.71351,-0.87601 0.1758,-0.22057 0.487,-0.60098 0.69155,-0.84537 0.40754,-0.48695 1.08222,-1.34794 1.41332,-1.8036 0.11612,-0.15982 0.26042,-0.31015 0.32067,-0.33409 0.0602,-0.0239 0.80038,-0.0501 1.64473,-0.058 l 1.53519,-0.0151 0.20223,-0.22623 c 0.1306,-0.14614 0.24548,-0.22727 0.32439,-0.22914 0.1187,-0.003 0.38418,0.20331 0.43159,0.33509 0.0163,0.0453 0.25686,0.0817 0.78331,0.11866 0.41788,0.0294 0.84436,0.0755 0.9477,0.10266 0.21766,0.057 0.64258,0.45731 1.06475,1.00284 0.15237,0.1969 0.44577,0.53183 0.65202,0.7443 0.20625,0.21245 0.40694,0.4439 0.44599,0.51431 0.039,0.0704 0.20374,0.25327 0.36598,0.40636 0.16221,0.15309 0.42221,0.45739 0.57777,0.67624 0.15557,0.21884 0.37389,0.50989 0.48519,0.6468 0.11131,0.1369 0.37099,0.45781 0.57709,0.71315 0.20609,0.25534 0.44512,0.55039 0.53116,0.65572 0.086,0.10531 0.22705,0.28589 0.31332,0.40127 0.0862,0.11537 0.29741,0.37148 0.4692,0.56909 0.17178,0.19761 0.47673,0.56642 0.67767,0.81958 0.20093,0.25315 0.47058,0.57424 0.59921,0.71352 0.12862,0.13927 0.38743,0.48428 0.57514,0.76667 0.74726,1.12421 0.84499,1.2528 0.97448,1.28204 0.0701,0.0158 0.17639,0.004 0.23628,-0.0258 0.20646,-0.1034 0.65475,-0.54725 0.84395,-0.8356 0.10433,-0.15899 0.30431,-0.43989 0.4444,-0.62423 0.14011,-0.18435 0.29729,-0.39672 0.34934,-0.47196 0.0521,-0.0753 0.38219,-0.50181 0.73366,-0.94797 0.35152,-0.44613 0.7385,-0.94398 0.85998,-1.10633 0.12149,-0.16233 0.33832,-0.43618 0.48183,-0.60853 0.14354,-0.17234 0.32057,-0.39507 0.39342,-0.49494 0.19541,-0.26798 0.71941,-0.92891 1.11419,-1.40541 0.19061,-0.23007 0.49036,-0.60042 0.66612,-0.823 0.17577,-0.2226 0.57757,-0.72228 0.8929,-1.11042 0.31534,-0.38812 0.67293,-0.84328 0.79462,-1.01142 0.12173,-0.16816 0.32479,-0.40573 0.45126,-0.52798 0.40313,-0.38964 0.38354,-0.38601 2.31485,-0.42766 1.62502,-0.0354 1.72051,-0.0317 1.81532,0.0584 0.093,0.0886 0.10175,0.1742 0.12401,1.20384 0.0134,0.6096 0.0167,1.76936 0.008,2.57721 -0.0241,2.31191 -0.0132,4.10288 0.0463,7.6704 0.0305,1.82345 0.0451,3.64606 0.0322,4.0502 -0.0402,1.277 0.0194,1.71823 0.2378,1.77005 l 0.12679,0.0301 -0.12737,0.0555 z m -68.59449,63.59546 c -0.08381,-0.0986 -0.177729,-0.51679 -0.127783,-0.56915 0.0405,-0.0424 0.132715,0.19733 0.173445,0.4513 0.03131,0.19556 0.02797,0.20442 -0.04565,0.11785 z m -0.334198,-0.78277 c -0.0278,0 -0.102688,-0.066 -0.166402,-0.14796 -0.147603,-0.19007 -0.122007,-0.19068 0.06789,0 0.08199,0.0816 0.126304,0.14891 0.09848,0.14957 z M 57.19885,164.98789 c -0.163184,0.11253 -0.261033,0.0774 -0.366855,-0.13162 -0.04607,-0.091 -0.151215,-0.20211 -0.233635,-0.24685 -0.08238,-0.0448 -0.150424,-0.10623 -0.151144,-0.13661 -0.0024,-0.0994 0.23249,-0.3033 0.329444,-0.28614 0.05202,0.009 0.154633,0.0278 0.22802,0.0414 0.141999,0.0262 0.222451,0.16271 0.286523,0.4863 0.03191,0.16101 0.02003,0.1961 -0.09235,0.2736 z m -9.973596,70.7973 c -0.0123,2.6e-4 -0.03693,-0.0219 -0.05478,-0.0493 -0.01786,-0.0275 -0.0082,-0.0504 0.02109,-0.0512 0.0295,-7.9e-4 0.05413,0.0215 0.05478,0.0493 5.29e-4,0.0279 -0.0088,0.0508 -0.02109,0.0512 z M 25.742688,173.87081 c -0.0096,0.049 -0.03869,0.0895 -0.06448,0.0902 -0.06019,0.001 -0.06712,-0.23657 -0.0086,-0.27502 0.05566,-0.0362 0.096,0.0665 0.07258,0.18489 z m 1.657493,112.39526 c -0.0426,0.0175 -0.09139,0.0185 -0.108437,0.003 -0.03693,-0.0351 0.07391,-0.18646 0.137753,-0.18796 0.07638,-0.003 0.05201,0.15229 -0.02931,0.18576 z m -0.377288,0.15507 c -0.02925,0.0188 -0.06425,0.0241 -0.07786,0.0109 -0.0136,-0.013 0.01011,-0.0379 0.0527,-0.0554 0.08836,-0.0363 0.104743,-0.008 0.02516,0.0443 z M 5.6424457,258.96571 c -0.083804,0.0345 -0.1507948,-0.0394 -0.1056439,-0.11646 0.044998,-0.0768 0.1756772,-0.0652 0.177591,0.0157 9.26e-4,0.0388 -0.031425,0.084 -0.071936,0.10072 z M -2.7510272,187.0544 c -0.086088,0.0902 -0.1762799,0.0355 -0.163989,-0.0994 0.00804,-0.0831 0.043394,-0.1403 0.088582,-0.14137 0.07958,-0.002 0.1357077,0.17755 0.075318,0.24084 z"
         id="path8497"
         inkscape:connector-curvature="0" />
    </clipPath>
  </defs>
  <sodipodi:namedview
     id="base"
     pagecolor="#ffffff"
     bordercolor="#666666"
     borderopacity="1.0"
     inkscape:pageopacity="0.0"
     inkscape:pageshadow="2"
     inkscape:zoom="0.7"
     inkscape:cx="353.83791"
     inkscape:cy="295.05937"
     inkscape:document-units="mm"
     inkscape:current-layer="layer1"
     showgrid="false"
     inkscape:window-width="1680"
     inkscape:window-height="987"
     inkscape:window-x="1681"
     inkscape:window-y="1042"
     inkscape:window-maximized="1" />
  <metadata
     id="metadata5">
    <rdf:RDF>
      <cc:Work
         rdf:about="">
        <dc:format>image/svg+xml</dc:format>
        <dc:type
           rdf:resource="http://purl.org/dc/dcmitype/StillImage" />
        <dc:title></dc:title>
      </cc:Work>
    </rdf:RDF>
  </metadata>
  <g
     inkscape:groupmode="layer"
     id="layer2"
     inkscape:label="Layer 2" />
  <g
     inkscape:label="Layer 1"
     inkscape:groupmode="layer"
     id="layer1">
    <g
       id="g8506"
       transform="matrix(1.3546667,0,0,1.3546667,0,-105.336)"
       inkscape:export-filename="C:\Users\Dax\other_projects\Trox\lib\png\trox_icon.png"
       inkscape:export-xdpi="25.4"
       inkscape:export-ydpi="25.4">
      <rect
         y="97"
         x="0"
         height="200"
         width="200"
         id="rect8499"
         style="opacity:1;fill:#353535;fill-opacity:1;stroke:none;stroke-width:1.32291663;stroke-linecap:round;stroke-linejoin:round;stroke-miterlimit:4;stroke-dasharray:none;stroke-opacity:1" />
      <rect
         transform="matrix(1.0056719,0,0,1.0056719,8.0688763,-37.777947)"
         clip-path="url(#clipPath8495)"
         y="190.56808"
         x="21.807434"
         height="85.643219"
         width="139.21042"
         id="rect8490"
         style="opacity:1;fill:#edf6f9;fill-opacity:1;stroke:none;stroke-width:1.3131758;stroke-linecap:round;stroke-linejoin:round;stroke-miterlimit:4;stroke-dasharray:none;stroke-opacity:1" />
    </g>
  </g>
</svg>
